<svg width="917" height="682" viewBox="0 0 917 682" fill="none" xmlns="http://www.w3.org/2000/svg">
<g clip-path="url(#clip0_299_873)">
<path d="M917 0.109375H0V681.109H917V0.109375Z" fill="white"/>
<path d="M96.546 628.627L355.568 627.029L424.612 627.005L447.486 626.995L516.661 626.971L832.697 626.868C832.697 626.868 904.984 516.727 827.769 412.118C747.711 303.657 708.784 391.988 684.175 239.317C622.232 -144.979 9.80899 78.6894 170.443 405.71C228.282 523.459 56.5918 460.874 96.546 628.627Z" fill="#EBF3FA"/>
<path d="M334.839 548.424L333.438 547.513C331.943 546.541 331.393 544.303 332.212 542.527L338.647 528.563C339.465 526.786 341.348 526.132 342.843 527.105L344.849 528.41C345.142 528.601 345.249 529.038 345.089 529.386C344.928 529.734 344.561 529.862 344.268 529.671L342.262 528.366C341.352 527.774 340.206 528.172 339.708 529.253L333.273 543.217C332.775 544.298 333.11 545.66 334.02 546.252L335.42 547.163C336.33 547.755 337.476 547.357 337.974 546.276L342.246 537.006C342.407 536.658 342.774 536.53 343.068 536.721C343.36 536.912 343.468 537.349 343.307 537.697L339.036 546.966C338.217 548.744 336.334 549.397 334.839 548.424Z" fill="#AFCDFB"/>
<path d="M328.869 563.088L326.358 561.454C324.027 559.938 323.243 556.289 324.61 553.322L334.285 532.328C334.445 531.98 334.813 531.853 335.106 532.043C335.399 532.233 335.506 532.671 335.346 533.018L325.672 554.012C324.625 556.285 325.193 559.057 326.939 560.193L329.45 561.827C331.196 562.963 333.468 562.038 334.515 559.766L345.535 535.853C346.582 533.58 346.014 530.808 344.268 529.672C343.975 529.481 343.867 529.044 344.028 528.696C344.188 528.348 344.556 528.22 344.849 528.411C347.18 529.927 347.964 533.576 346.596 536.543L335.577 560.456C334.209 563.424 331.2 564.605 328.869 563.088Z" fill="#AFCDFB"/>
<path opacity="0.6" d="M570.742 470.764H262.546C254.969 470.764 248.827 463.466 248.827 454.463V147.102C248.827 138.099 254.969 130.801 262.546 130.801H570.742C578.319 130.801 584.461 138.099 584.461 147.102V454.463C584.461 463.467 578.319 470.764 570.742 470.764Z" fill="white"/>
<path d="M584.461 168.524H248.827V142.97C248.827 136.249 253.412 130.801 259.069 130.801H574.219C579.875 130.801 584.461 136.249 584.461 142.97L584.461 168.524Z" fill="#699DEE"/>
<path d="M262.4 149.436C262.4 146.945 264.1 144.926 266.196 144.926C268.292 144.926 269.991 146.945 269.991 149.436C269.991 151.927 268.292 153.946 266.196 153.946C264.099 153.946 262.4 151.927 262.4 149.436Z" fill="#DDE7FE"/>
<path d="M278.331 149.436C278.331 146.945 280.03 144.926 282.127 144.926C284.223 144.926 285.922 146.945 285.922 149.436C285.922 151.927 284.223 153.946 282.127 153.946C280.031 153.946 278.331 151.927 278.331 149.436Z" fill="#DDE7FE"/>
<path d="M294.262 149.436C294.262 146.945 295.961 144.926 298.058 144.926C300.154 144.926 301.853 146.945 301.853 149.436C301.853 151.927 300.154 153.946 298.058 153.946C295.961 153.946 294.262 151.927 294.262 149.436Z" fill="#DDE7FE"/>
<path opacity="0.5" d="M370.567 198.457H275.426V311.506H370.567V198.457Z" fill="#CDE0FB"/>
<path opacity="0.5" d="M472.113 206.884H396.437C394.451 206.884 392.841 204.971 392.841 202.612C392.841 200.253 394.451 198.34 396.437 198.34H472.113C474.099 198.34 475.709 200.253 475.709 202.612C475.709 204.971 474.099 206.884 472.113 206.884Z" fill="#7C9AF2"/>
<path opacity="0.5" d="M562.61 201.154H486.933C484.947 201.154 483.337 199.241 483.337 196.882C483.337 194.522 484.947 192.609 486.933 192.609H562.61C564.595 192.609 566.205 194.522 566.205 196.882C566.205 199.241 564.595 201.154 562.61 201.154Z" fill="#7C9AF2"/>
<g opacity="0.3">
<path d="M487.093 239.774H395.171C393.884 239.774 392.841 238.534 392.841 237.005C392.841 235.476 393.884 234.236 395.171 234.236H487.093C488.381 234.236 489.424 235.476 489.424 237.005C489.424 238.534 488.381 239.774 487.093 239.774Z" fill="#BDD1F9"/>
<path d="M522.039 239.774H497.773C496.486 239.774 495.443 238.534 495.443 237.005C495.443 235.476 496.486 234.236 497.773 234.236H522.039C523.326 234.236 524.369 235.476 524.369 237.005C524.369 238.534 523.326 239.774 522.039 239.774Z" fill="#BDD1F9"/>
<path d="M429.855 256.948H395.171C393.884 256.948 392.841 255.709 392.841 254.179C392.841 252.65 393.884 251.41 395.171 251.41H429.855C431.142 251.41 432.185 252.65 432.185 254.179C432.185 255.709 431.142 256.948 429.855 256.948Z" fill="#BDD1F9"/>
<path d="M486.031 256.948H438.506C437.219 256.948 436.176 255.709 436.176 254.179C436.176 252.65 437.219 251.41 438.506 251.41H486.031C487.318 251.41 488.362 252.65 488.362 254.179C488.362 255.709 487.318 256.948 486.031 256.948Z" fill="#BDD1F9"/>
<path d="M522.039 256.948H497.773C496.486 256.948 495.443 255.709 495.443 254.179C495.443 252.65 496.486 251.41 497.773 251.41H522.039C523.326 251.41 524.369 252.65 524.369 254.179C524.369 255.709 523.326 256.948 522.039 256.948Z" fill="#BDD1F9"/>
<path d="M442.233 271.798H395.171C393.884 271.798 392.841 270.558 392.841 269.029C392.841 267.5 393.884 266.26 395.171 266.26H442.233C443.52 266.26 444.563 267.5 444.563 269.029C444.563 270.558 443.52 271.798 442.233 271.798Z" fill="#BDD1F9"/>
<path d="M532.101 271.798H455.131C453.844 271.798 452.801 270.558 452.801 269.029C452.801 267.5 453.845 266.26 455.131 266.26H532.101C533.388 266.26 534.431 267.5 534.431 269.029C534.431 270.558 533.388 271.798 532.101 271.798Z" fill="#BDD1F9"/>
</g>
<g opacity="0.3">
<path d="M487.093 294.333H395.171C393.884 294.333 392.841 293.093 392.841 291.564C392.841 290.035 393.884 288.795 395.171 288.795H487.093C488.381 288.795 489.424 290.035 489.424 291.564C489.424 293.093 488.381 294.333 487.093 294.333Z" fill="#BDD1F9"/>
<path d="M522.039 294.333H497.773C496.486 294.333 495.443 293.093 495.443 291.564C495.443 290.035 496.486 288.795 497.773 288.795H522.039C523.326 288.795 524.369 290.035 524.369 291.564C524.369 293.093 523.326 294.333 522.039 294.333Z" fill="#BDD1F9"/>
<path d="M429.855 311.507H395.171C393.884 311.507 392.841 310.267 392.841 308.738C392.841 307.209 393.884 305.969 395.171 305.969H429.855C431.142 305.969 432.185 307.209 432.185 308.738C432.185 310.267 431.142 311.507 429.855 311.507Z" fill="#BDD1F9"/>
<path d="M486.031 311.507H438.506C437.219 311.507 436.176 310.267 436.176 308.738C436.176 307.209 437.219 305.969 438.506 305.969H486.031C487.318 305.969 488.362 307.209 488.362 308.738C488.362 310.267 487.318 311.507 486.031 311.507Z" fill="#BDD1F9"/>
</g>
<path d="M318.084 215.309H327.909L354.455 287.509H343.251L337.132 270.202H308.603L302.397 287.509H291.537L318.084 215.309ZM333.253 259.038L322.824 230.363L312.481 259.038H333.253Z" fill="#BDD1F9"/>
<path d="M328.573 334.277H275.426V346.469H328.573V334.277Z" fill="#F99746"/>
<path d="M328.573 346.469H275.426V358.66H328.573V346.469Z" fill="#ED7D2B"/>
<path d="M328.573 358.66H275.426V370.851H328.573V358.66Z" fill="#474FEA"/>
<path d="M367.731 341.18H338.489C337.265 341.18 336.274 340.001 336.274 338.547C336.274 337.093 337.265 335.914 338.489 335.914H367.731C368.955 335.914 369.947 337.093 369.947 338.547C369.947 340.001 368.955 341.18 367.731 341.18Z" fill="#BDD1F9"/>
<path d="M357.88 350.46H338.489C337.265 350.46 336.274 349.282 336.274 347.828C336.274 346.374 337.265 345.195 338.489 345.195H357.88C359.103 345.195 360.095 346.374 360.095 347.828C360.096 349.282 359.103 350.46 357.88 350.46Z" fill="#BDD1F9"/>
<path d="M328.573 397.312H275.426V422.223H328.573V397.312Z" fill="#F99746"/>
<path d="M328.573 416.072H275.426V433.888H328.573V416.072Z" fill="#B5453C"/>
<path d="M275.426 397.312L294.492 416.342L275.426 433.887V397.312Z" fill="#474FEA"/>
<path d="M367.731 404.214H338.489C337.265 404.214 336.274 403.035 336.274 401.582C336.274 400.127 337.265 398.949 338.489 398.949H367.731C368.955 398.949 369.947 400.128 369.947 401.582C369.947 403.035 368.955 404.214 367.731 404.214Z" fill="#BDD1F9"/>
<path d="M357.88 413.493H338.489C337.265 413.493 336.274 412.315 336.274 410.861C336.274 409.407 337.265 408.229 338.489 408.229H357.88C359.103 408.229 360.095 409.407 360.095 410.861C360.096 412.315 359.103 413.493 357.88 413.493Z" fill="#BDD1F9"/>
<path d="M587.85 161.588C587.85 161.588 589.233 181.19 585.475 180.893C581.717 180.596 574.295 171.966 559.32 173.37C544.345 174.774 526.023 178.667 514.946 155.378C503.872 132.089 529.112 125.387 529.112 125.387L587.85 161.588Z" fill="#233862"/>
<path d="M556.016 160.152L631.475 167.525L633.043 163.537L560.699 100.084L487.622 89.9395L486.218 93.5086L556.016 160.152Z" fill="#2B478B"/>
<path d="M607.368 227.677C606.923 225.831 605.303 224.764 603.75 225.291C602.197 225.819 601.299 227.744 601.743 229.59C602.188 231.435 603.807 232.503 605.36 231.975C606.914 231.446 607.812 229.522 607.368 227.677Z" fill="#F99746"/>
<path d="M604.853 228.642C607.88 228.363 608.587 261.085 608.587 261.085C608.587 261.085 606.614 262.187 605.644 261.928C604.673 261.669 604.178 257.25 604.178 257.25L604.085 261.883C604.085 261.883 600.765 262.02 599.614 261.06C599.614 261.06 600.065 229.086 604.853 228.642Z" fill="#F99746"/>
<path d="M605.839 229.379L605.293 157.888L604.902 157.542L565.487 122.896L564.071 125.174L603.094 159.473L603.975 229.255L605.839 229.379Z" fill="#F99746"/>
<path d="M656.692 566.661H490.921V491.822H657.245C670.688 491.822 681.586 504.772 681.586 520.746V537.082C681.586 553.418 670.441 566.661 656.692 566.661Z" fill="#FCECDB"/>
<path d="M823.79 522.614V533.873C823.79 539.889 822.519 545.523 820.294 550.365C815.827 560.11 807.519 566.66 798.008 566.66H485.814C483.748 566.66 482.075 564.531 482.075 561.908V560.222C482.075 557.599 483.748 555.47 485.814 555.47H676.125C677.143 553.892 678.039 552.184 678.796 550.365C680.578 546.095 681.585 541.227 681.585 536.057V521.745C681.585 519.114 681.318 516.559 680.815 514.129C679.962 510.009 678.437 506.238 676.402 503.017H485.814C483.748 503.017 482.075 500.888 482.075 498.26V496.579C482.075 493.951 483.748 491.822 485.814 491.822H799.58C810.637 491.822 819.963 501.249 822.857 514.129C823.465 516.826 823.79 519.672 823.79 522.614Z" fill="#699DEE"/>
<path d="M822.858 514.129H680.815C679.963 510.009 678.438 506.238 676.403 503.017H485.815C483.749 503.017 482.075 500.888 482.075 498.26V496.579C482.075 493.951 483.749 491.822 485.815 491.822H799.581C810.637 491.822 819.963 501.249 822.858 514.129Z" fill="#548EE2"/>
<path d="M490.921 529.242L514.036 530.5L490.921 531.258V529.242Z" fill="#F4D2B8"/>
<path d="M490.921 540.984L545.915 542.242L490.921 543V540.984Z" fill="#F4D2B8"/>
<path d="M466.697 624.715H629.428V566.504H465.264C453.072 566.504 443.188 578.248 443.188 592.735V596.781C443.188 612.209 453.713 624.715 466.697 624.715Z" fill="#F99746"/>
<path d="M621.588 624.715H807.055V566.504H621.079C608.683 566.504 598.634 578.445 598.634 593.174V597.44C598.634 612.504 608.911 624.715 621.588 624.715Z" fill="#FCECDB"/>
<path d="M586.38 624.716H813.314C815.197 624.716 816.723 622.902 816.723 620.665V620.06C816.723 617.823 815.197 616.01 813.314 616.01H586.38C584.498 616.01 582.971 617.823 582.971 620.06V620.665C582.971 622.902 584.498 624.716 586.38 624.716Z" fill="#F99746"/>
<path d="M586.38 575.21H813.314C815.197 575.21 816.723 573.397 816.723 571.16V570.554C816.723 568.318 815.197 566.504 813.314 566.504H586.38C584.498 566.504 582.971 568.317 582.971 570.554V571.16C582.971 573.397 584.498 575.21 586.38 575.21Z" fill="#F99746"/>
<path d="M807.055 595.609L781.786 596.588L807.055 597.177V595.609Z" fill="#F4D2B8"/>
<path d="M807.055 582.213L746.94 583.191L807.055 583.781V582.213Z" fill="#F4D2B8"/>
<path d="M747.559 582.998C747.559 582.998 750.135 585.499 750.988 589.61C751.138 590.329 751.235 591.1 751.255 591.91C751.397 597.373 751.255 609.735 751.255 609.735L758.861 603.554L766.447 609.735V592.98C766.447 589.811 765.796 586.73 764.588 584.712C764.002 583.734 763.291 582.998 762.486 582.998L747.559 582.998Z" fill="#699DEE"/>
<path d="M747.559 582.998C747.559 582.998 750.135 585.499 750.988 589.61L766.23 589.855C766.23 589.855 765.632 583.968 762.486 582.998H747.559Z" fill="#568CDB"/>
<path d="M609.257 491.98H449.092V406.455H609.841C624.054 406.455 635.576 420.146 635.576 437.034V460.708C635.576 477.979 623.793 491.98 609.257 491.98Z" fill="#FCECDB"/>
<path d="M635.667 439.639V458.046C635.628 465.907 632.561 472.728 628.055 476.374C625.837 478.163 623.273 479.187 620.549 479.187H444.184C442.118 479.187 440.442 481.565 440.442 484.498V486.67C440.442 489.603 442.118 491.981 444.184 491.981H748.857C757.6 491.981 765.324 485.814 769.991 476.375C772.934 470.427 774.661 463.185 774.661 455.362V440.84C774.661 435.481 773.797 430.406 772.255 425.887C768.337 414.387 760.039 406.457 750.433 406.457H444.184C442.117 406.457 440.442 408.831 440.442 411.764V413.935C440.442 416.869 442.117 419.247 444.184 419.247H621.088C625.316 419.247 629.143 421.801 631.816 425.887C634.183 429.507 635.643 434.328 635.667 439.639Z" fill="#AFCDFB"/>
<path d="M440.442 484.499V486.67C440.442 489.603 442.117 491.982 444.184 491.982H748.857C757.6 491.982 765.324 485.815 769.991 476.375H628.055C625.837 478.164 623.273 479.188 620.549 479.188H444.184C442.117 479.188 440.442 481.566 440.442 484.499Z" fill="#A4C4F4"/>
<path d="M449.092 449.219L471.701 450.656L449.092 451.523V449.219Z" fill="#F4D2B8"/>
<path d="M449.092 429.535L502.88 430.973L449.092 431.839V429.535Z" fill="#F4D2B8"/>
<path d="M502.326 430.688C502.326 430.688 498.777 433.4 497.601 437.857C497.393 438.636 497.26 439.472 497.233 440.351C497.037 446.274 497.233 459.678 497.233 459.678L486.752 452.976L476.299 459.678V441.511C476.299 438.076 477.196 434.734 478.861 432.546C479.669 431.486 480.648 430.688 481.757 430.688L502.326 430.688Z" fill="#F99746"/>
<path d="M502.326 430.688C502.326 430.688 498.777 433.4 497.601 437.857L476.599 438.123C476.599 438.123 477.423 431.74 481.757 430.688H502.326Z" fill="#ED7D2B"/>
<path d="M234.603 484.414C234.603 484.414 267.434 501.41 273.393 501.101C279.353 500.792 316.075 487.811 316.075 487.811L315.14 495.317C315.14 495.317 286.8 514.684 276.892 515.782C267.138 516.864 233.784 505.38 230.564 502.955C227.344 500.531 225.245 486.868 234.603 484.414Z" fill="#ED985F"/>
<path d="M229.67 421.891C229.67 421.891 217.558 419.158 211.527 424.392C200.6 433.873 200.013 466.561 195.918 471.43C191.822 476.3 181.951 474.222 181.072 499.418C180.193 524.614 185.002 526.72 179.275 537.968C173.548 549.215 181.698 560.472 181.698 560.472C181.698 560.472 178.36 554.264 179.79 549.782C179.79 549.782 181.18 559.672 186.468 561.99C191.756 564.309 192.538 566.008 193.383 569.408C193.383 569.408 238.495 541.941 238.544 522.459C238.593 502.976 247.421 483.678 243.086 475.236C243.086 475.236 245.017 478.848 245.254 482.865C245.254 482.865 247.855 476.943 243.347 471.43C238.838 465.917 248.636 454.508 247.185 441.294C246.188 432.224 240.831 422.286 229.67 421.891Z" fill="#233862"/>
<path d="M238.593 502.977C235.709 505.354 232.094 507.314 227.555 508.559C210.542 513.23 204.022 496.144 201.573 484.415C203.893 482.838 206.077 482.49 207.337 482.312C208.567 482.139 209.86 482.024 210.931 481.961C212.842 480.223 215.689 473.107 216.318 462.059L217.118 462.314L230.527 466.674C230.527 466.674 229.913 471.739 229.612 476.526C229.379 480.272 229.342 483.852 229.939 484.727C230.986 484.997 231.614 485.173 231.614 485.173C231.614 485.173 231.614 485.179 231.62 485.188C231.8 485.538 235.69 493.139 238.593 502.977Z" fill="#FFB27D"/>
<path d="M230.527 466.676C230.527 466.676 229.911 471.736 229.612 476.528C222.016 475.624 218.491 467.03 217.118 462.316L230.527 466.676Z" fill="#ED985F"/>
<path d="M232.796 471.431C232.796 471.431 214.765 470.248 215.557 456.918C216.349 443.587 214.556 434.456 226.102 434.647C237.648 434.839 239.579 440.113 240.226 444.639C240.872 449.165 237.506 471.395 232.796 471.431Z" fill="#FFB27D"/>
<path d="M240.138 437.181C237.596 432.934 235.439 433.635 234.188 434.739C224.732 427.47 217.815 436.436 217.815 436.436C216.033 445.898 209.898 450.882 209.898 450.882C209.898 450.882 213.035 453.571 220.742 451.904C223.096 451.395 225.278 449.619 227.175 447.401C223.744 453.239 219.311 457.279 219.311 457.279C228.65 453.084 233.181 438.456 233.638 436.907C234.667 438.174 236.68 440.906 237.19 443.46C237.883 446.932 240.872 452.358 242.6 452.266C242.6 452.266 243.95 443.55 240.138 437.181Z" fill="#233862"/>
<path d="M196.438 546.536C194.809 536.645 189.5 497.129 194.809 484.414C196.716 479.846 204.198 479.434 212.407 479.835C214.961 481.794 224.695 489.199 228.693 488.275C228.736 488.265 228.814 488.243 228.917 488.212C230.799 487.652 231.51 486.081 229.94 484.726C229.936 484.723 234.005 484.26 239.054 485.39C241.906 486.028 249.598 490.757 249.598 490.757C249.598 490.757 245.724 499.072 240.013 501.942C240.984 512.265 239.54 516.819 230.527 540.664C222.91 560.819 231.554 578.965 231.554 578.965C231.554 578.965 186.719 621.797 186.47 599.989C186.283 583.57 198.519 559.177 196.438 546.536Z" fill="#F9DDBF"/>
<path d="M233.777 625.54C236.215 625.213 238.41 623.627 239.773 621.202C239.99 620.818 240.221 620.404 240.466 619.962C245.569 610.782 247.555 582.669 259.034 552.719C261.831 545.428 271.867 544.116 274.604 535.873C274.604 535.873 281.34 509.157 261.711 508.369C242.083 507.582 209.142 582.705 208.622 590.584C208.118 598.216 195.645 630.652 233.777 625.54Z" fill="#DD6D22"/>
<path d="M311.792 624.926H283.854C283.854 624.926 282.81 619.631 284.644 616.028C286.268 612.84 285.646 611.024 284.443 608.387C285.709 609.002 287.346 609.562 289.148 609.44C290.54 609.345 292.012 608.594 293.303 607.703C294.506 609.332 299.654 616.265 301.263 617.64C303.089 619.198 311.23 618.643 311.792 624.926Z" fill="#233862"/>
<path d="M275.242 516.093C276.925 531.079 283.494 578.378 295.083 601.454C298.819 608.894 285.67 613.065 285.598 613.042C283.835 612.495 280.897 609.153 279.543 607.703C270.134 597.628 251.036 569.1 251.036 546.228C251.036 535.075 250.871 513.776 257.696 508.364C261.899 505.03 274.574 510.141 275.242 516.093Z" fill="#ED7D2B"/>
<path d="M217.117 624.925C217.117 624.925 218.153 623.212 219.958 619.961C222.107 616.094 224.484 608.485 227.369 598.73C230.399 588.49 233.994 575.892 238.486 562.784C239.873 558.738 241.345 554.643 242.911 550.554C245.707 543.263 253.399 544.27 256.135 536.027C256.135 536.027 266.813 507.452 247.184 506.664C227.556 505.876 190.257 583.103 188.114 590.583C185.768 598.77 174.32 632.769 217.117 624.925Z" fill="#F99746"/>
<path d="M291.284 624.926H263.346C263.346 624.926 262.302 619.631 264.136 616.028C265.76 612.84 265.137 611.024 263.935 608.387C265.201 609.002 266.838 609.562 268.64 609.44C270.032 609.345 271.504 608.594 272.795 607.703C273.997 609.332 279.146 616.265 280.755 617.64C282.581 619.198 290.722 618.643 291.284 624.926Z" fill="#2B478B"/>
<path d="M227.369 598.731C230.399 588.491 233.994 575.893 238.486 562.785C237.313 552.854 234.782 544.166 230.527 540.664C230.527 540.664 220.202 578.669 227.369 598.731Z" fill="#ED7D2B"/>
<path d="M258.934 515.03C260.617 530.016 262.986 578.377 274.574 601.454C278.311 608.894 265.161 613.064 265.09 613.042C263.327 612.494 260.389 609.153 259.034 607.703C249.626 597.628 230.527 569.099 230.527 546.227C230.527 535.075 241.542 514.671 248.367 509.258C252.57 505.924 258.266 509.078 258.934 515.03Z" fill="#F99746"/>
<path d="M236.171 463.764C236.171 463.764 234.467 462.963 229.67 463.425C229.67 463.425 229.925 465.648 233.462 465.868C235.466 465.992 236.171 463.764 236.171 463.764Z" fill="white"/>
<path d="M319.578 472.108L313.786 459.691L301.256 501.236L308.649 510.666L319.578 472.108Z" fill="#163560"/>
<path d="M289.335 479.382L277.688 518.919L308.649 510.667L319.578 472.109L289.335 479.382Z" fill="#1C468A"/>
<path d="M278.305 516.924L277.763 515.796L288.784 478.381L289.335 479.381L278.305 516.924Z" fill="#EFDECE"/>
<path d="M288.784 478.381L318.137 471.594L319.578 472.108L289.335 479.381L288.784 478.381Z" fill="#FCECDB"/>
<path d="M319.578 472.109L313.316 460.295L309.323 473.632L318.137 471.594L319.578 472.109Z" fill="#EFDECE"/>
<path d="M298.275 485.107C297.268 484.877 295.108 483.909 292.921 483.195C293.574 482.592 294.3 481.852 294.503 481.093C294.893 479.628 295.153 479.157 293.853 479.621C292.552 480.085 288.002 482.565 288.002 482.565C288.002 482.565 288.011 482.571 288.013 482.572C285.428 483.47 283.045 487.812 283.045 487.812C283.045 487.812 251.036 501.182 247.184 501.411C241.227 501.767 201.573 484.415 201.573 484.415C192.215 486.869 194.315 500.532 197.535 502.957C200.755 505.381 229.288 517.715 246.198 517.947C254.763 518.065 285.919 494.271 285.919 494.271C285.919 494.271 289.56 492.293 292.422 492.912C295.283 493.53 301.916 492.912 303.347 490.13C304.777 487.348 299.965 485.493 298.275 485.107Z" fill="#FFB27D"/>
<path d="M222.003 492.972C222.003 492.972 218.457 506.312 206.277 509.347C206.277 509.347 186.163 501.984 196.177 485.703C196.177 485.703 206.08 476.96 222.003 492.972Z" fill="#F9DDBF"/>
<path d="M319.057 486.112L319.055 486.115C319.063 485.745 319.031 485.381 318.949 485.03C318.949 485.03 316.08 479.638 315.14 479.417C312.278 478.746 312.278 483.223 312.885 486.112C313.308 488.123 314.383 490.056 315.254 491.098L315.254 491.099L315.14 495.318C319.974 492.161 319.057 486.112 319.057 486.112Z" fill="#FFB27D"/>
<path d="M151.007 415.695C152.151 382.07 128.432 367.131 104.179 367.131C79.9265 367.131 53.5341 374.598 51.2474 419.309C49.7762 448.074 62.6812 465.773 99.8412 465.773C112.374 465.773 122.114 463.425 129.574 459.236L148.149 478.849L139.021 451.74C147.107 442.806 150.514 430.205 151.007 415.695Z" fill="#EBF3FA"/>
<path d="M85.7527 404.451V412.306H90.0763V404.451H91.8375V422.771H90.0763V414.209H85.7527V422.771H83.9915V404.451H85.7527Z" fill="#91B5F8"/>
<path d="M95.5901 416.384C95.5901 420.434 96.9395 421.277 98.1981 421.277C98.9758 421.277 99.5934 421.059 100.028 420.787L100.326 422.309C99.708 422.69 98.7701 422.934 97.878 422.934C95.2244 422.934 93.8518 420.352 93.8518 416.33C93.8518 412.09 95.3843 409.426 97.6035 409.426C99.8453 409.426 100.76 412.253 100.76 415.188C100.76 415.705 100.737 416.058 100.715 416.384L95.5901 416.384ZM99.067 414.835C99.0899 412.225 98.2663 411.056 97.4198 411.056C96.2532 411.056 95.6812 413.041 95.6127 414.835H99.067Z" fill="#91B5F8"/>
<path d="M102.659 403.963H104.42V422.772H102.659V403.963Z" fill="#91B5F8"/>
<path d="M107.028 403.963H108.789V422.772H107.028V403.963Z" fill="#91B5F8"/>
<path d="M118.191 416.194C118.191 421.277 116.224 422.989 114.508 422.989C112.518 422.989 110.917 420.842 110.917 416.221C110.917 411.437 112.724 409.426 114.623 409.426C116.613 409.426 118.191 411.628 118.191 416.194ZM112.678 416.194C112.678 418.369 112.999 421.331 114.6 421.331C116.11 421.331 116.43 418.26 116.43 416.194C116.43 414.183 116.11 411.084 114.554 411.084C112.976 411.084 112.678 414.183 112.678 416.194Z" fill="#91B5F8"/>
<path d="M636.799 314.781C637.845 284.04 616.161 270.383 593.988 270.383C571.816 270.383 547.688 277.209 545.597 318.085C544.253 344.382 556.051 360.563 590.022 360.563C601.48 360.563 610.384 358.416 617.204 354.586L634.186 372.516L625.841 347.733C633.234 339.566 636.349 328.046 636.799 314.781Z" fill="#91B5F8"/>
<path d="M568.312 309.447C568.931 309.264 569.647 309.148 570.479 309.148C571.659 309.148 572.666 309.447 573.362 310.229C573.924 310.85 574.214 311.77 574.214 312.874C574.214 314.46 573.478 315.702 572.202 316.299V316.368C573.711 316.851 574.62 318.3 574.62 320.323C574.62 321.611 574.272 322.646 573.691 323.404C572.956 324.393 571.737 324.807 570.247 324.807C569.299 324.807 568.718 324.738 568.312 324.646V309.447ZM569.782 315.794H570.46C571.679 315.794 572.723 314.69 572.723 313.058C572.723 311.632 572.163 310.528 570.576 310.528C570.227 310.528 569.957 310.574 569.782 310.643V315.794H569.782ZM569.782 323.312C569.957 323.359 570.208 323.404 570.537 323.404C572.066 323.404 573.072 322.324 573.072 320.323C573.072 318.185 571.834 317.174 570.441 317.151H569.782V323.312Z" fill="white"/>
<path d="M582.128 319.151C582.128 323.451 580.464 324.899 579.013 324.899C577.329 324.899 575.975 323.083 575.975 319.174C575.975 315.127 577.503 313.426 579.109 313.426C580.793 313.426 582.128 315.288 582.128 319.151ZM577.465 319.151C577.465 320.991 577.736 323.497 579.09 323.497C580.367 323.497 580.638 320.899 580.638 319.151C580.638 317.45 580.367 314.829 579.052 314.829C577.716 314.828 577.465 317.449 577.465 319.151Z" fill="white"/>
<path d="M583.793 316.461C583.793 315.15 583.735 314.483 583.715 313.587H585.012L585.089 314.943H585.128C585.534 314.047 586.289 313.426 587.276 313.426C588.572 313.426 589.54 314.552 589.54 317.242V324.715H588.05V317.564C588.05 316.23 587.837 314.92 586.753 314.92C586.134 314.92 585.534 315.541 585.36 316.714C585.302 316.99 585.283 317.334 585.283 317.725V324.715H583.793V316.461Z" fill="white"/>
<path d="M590.044 327.911C590.469 327.773 590.992 327.589 591.302 327.037C591.63 326.439 591.747 325.611 591.747 323.496V313.586H593.236V324.002C593.236 326.347 592.946 327.428 592.288 328.256C591.727 328.945 590.818 329.29 590.237 329.313L590.044 327.911ZM593.372 310.712C593.372 311.402 593.024 311.862 592.482 311.862C591.979 311.862 591.611 311.402 591.611 310.712C591.611 310.022 591.998 309.563 592.501 309.563C593.024 309.562 593.372 310.022 593.372 310.712Z" fill="white"/>
<path d="M601.015 319.151C601.015 323.451 599.351 324.899 597.9 324.899C596.216 324.899 594.861 323.083 594.861 319.174C594.861 315.127 596.39 313.426 597.996 313.426C599.68 313.426 601.015 315.288 601.015 319.151ZM596.352 319.151C596.352 320.991 596.622 323.497 597.977 323.497C599.254 323.497 599.525 320.899 599.525 319.151C599.525 317.45 599.254 314.829 597.939 314.829C596.603 314.828 596.352 317.449 596.352 319.151Z" fill="white"/>
<path d="M608.292 321.679C608.292 322.898 608.349 323.887 608.369 324.714H607.073L606.957 323.542H606.918C606.647 324.094 605.931 324.898 604.925 324.898C603.299 324.898 602.641 323.381 602.641 320.622V313.586H604.131V320.369C604.131 322.116 604.364 323.404 605.389 323.404C606.26 323.404 606.647 322.438 606.724 321.932C606.782 321.633 606.802 321.288 606.802 320.921V313.586H608.292L608.292 321.679Z" fill="white"/>
<path d="M610.362 316.461C610.362 315.518 610.304 314.414 610.285 313.587H611.62L611.697 315.357H611.736C612.046 314.3 612.839 313.426 613.71 313.426C613.826 313.426 613.923 313.426 614.02 313.449V315.242C613.923 315.242 613.826 315.242 613.71 315.242C612.762 315.242 612.065 316.277 611.911 317.541C611.872 317.84 611.852 318.185 611.852 318.553V324.715H610.363L610.362 316.461Z" fill="white"/>
<path d="M629.899 476.973C635.16 488.034 641.834 492.342 641.834 492.342L669.707 492.576C669.707 492.576 625.885 468.536 629.899 476.973Z" fill="#233862"/>
<path d="M650.8 562.386C651.52 563.381 651.606 564.487 651.24 565.664C651.239 565.669 651.237 565.676 651.232 565.68C650.555 567.858 648.344 570.277 645.779 572.69C645.451 573 645.159 573.281 644.905 573.543C644.838 573.611 644.771 573.68 644.709 573.749C644.657 573.802 644.607 573.858 644.558 573.909C642.163 576.494 643.055 577.099 638.75 582.351C633.84 588.335 630.485 588.415 629.533 587.858C628.728 587.383 630.388 584.202 632.227 580.626C632.317 580.453 632.404 580.278 632.495 580.104C632.74 579.629 632.984 579.146 633.227 578.668C635.383 574.364 634.848 572.331 634.381 565.894C634.002 560.663 627.711 536.632 627.711 536.632L637.061 534.799C637.061 534.799 639.76 553.915 642.841 556.881C644.489 558.463 646.344 558.498 647.929 559.673C648.041 559.754 648.151 559.838 648.259 559.924C649.16 560.645 650.077 561.388 650.8 562.386Z" fill="#FFB27D"/>
<path d="M650.8 562.385C651.52 563.38 651.606 564.486 651.24 565.663C651.239 565.668 651.237 565.675 651.232 565.679C650.405 567.853 648.25 570.26 645.77 572.666C645.446 572.982 645.159 573.271 644.905 573.542C644.838 573.61 644.771 573.679 644.708 573.748C644.656 573.801 644.607 573.856 644.557 573.907C642.163 576.493 643.054 577.098 638.749 582.349C633.84 588.333 630.484 588.414 629.533 587.857C628.728 587.382 630.388 584.201 632.227 580.625C633.178 580.22 637.597 578.13 640.959 573.092C643.92 568.667 645.911 562.967 647.929 559.672C648.041 559.753 648.151 559.837 648.258 559.923C649.16 560.644 650.077 561.387 650.8 562.385Z" fill="#233862"/>
<path d="M575.536 554.824C574.939 558.245 570.834 557.639 566.251 556.267C561.668 554.896 562.75 556.489 556.221 555.575C549.692 554.661 547.73 551.75 547.538 550.593C547.365 549.568 550.596 549.234 554.061 548.788C554.497 548.734 554.935 548.674 555.373 548.613C559.286 548.063 562.167 545.089 565.733 542.657C569.111 540.353 574.187 530.895 574.187 530.895L583.143 531.813C583.143 531.813 578.39 540.26 576.549 543.934C575.467 546.095 575.507 548.965 575.627 551.182C575.689 552.388 575.748 553.619 575.536 554.824Z" fill="#FFB27D"/>
<path d="M566.251 556.266C561.668 554.894 562.749 556.488 556.221 555.574C549.692 554.659 547.73 551.748 547.538 550.592C547.365 549.566 550.596 549.232 554.061 548.787L554.093 548.866C554.093 548.866 557.992 552.2 563.43 552.401C567.862 552.566 572.566 551.096 575.627 551.181C575.689 552.386 575.748 553.617 575.537 554.822C574.939 558.243 570.834 557.637 566.251 556.266Z" fill="#233862"/>
<path d="M610.28 487.031L618.497 513.884L629.225 548.946C629.225 548.946 632.191 549.311 635.039 548.363C637.66 547.487 640.677 545.161 640.677 545.161C640.677 545.161 637.863 507.588 632.327 485.986C630.908 480.442 629.307 475.952 627.527 473.419C618.819 461.013 610.28 487.031 610.28 487.031Z" fill="#233862"/>
<path d="M619.049 444.569C624.549 442.512 640.185 445.344 655.886 449.133L659.216 442.708L693.195 439.842C693.195 439.842 704.226 469.465 697.979 488.229C697.061 490.986 694.822 492.134 691.767 492.166C691.766 492.168 691.764 492.17 691.763 492.172C691.763 492.172 671.495 492.59 664.932 492.535C648.043 492.393 629.271 478.441 626.835 477.841C622.849 476.858 621.196 486.332 617.145 496.26C613.093 506.188 579.357 540.06 579.357 540.06C579.357 540.06 574.203 540.078 572.079 539.111C569.796 538.072 568.966 536.74 568.966 536.74C568.966 536.74 606.645 449.209 619.049 444.569Z" fill="#2B478B"/>
<path d="M659.745 387.138C671.791 395.151 696.227 411.759 696.355 411.654C696.355 411.654 705.348 415.767 710.488 411.773C719.054 405.116 723.734 387.047 708.234 371.333C700.503 363.496 694.99 361.557 694.224 349.141C693.809 342.404 686.195 320.12 673.314 322.067C672.237 322.23 671.153 322.344 670.069 322.293C668.566 322.223 666.084 322.463 663.527 324.242C656.214 329.334 641.634 383.924 659.745 387.138Z" fill="#233862"/>
<path d="M669.921 380.488C669.868 380.529 675.857 383.014 679.884 380.935C683.672 378.984 686.576 371.625 686.52 371.621C684.803 371.513 682.927 369.712 681.545 357.99L680.811 358.296L668.481 363.452C668.481 363.452 669.344 368.148 669.894 372.618C670.357 376.37 670.596 379.964 669.921 380.488Z" fill="#FFB27D"/>
<path d="M668.481 363.452C668.481 363.452 669.006 366.744 669.736 371.448C676.809 369.996 679.79 362.827 680.811 358.297L668.481 363.452Z" fill="#ED975D"/>
<path d="M666.622 368.092C666.622 368.092 683.465 365.549 681.971 353.11C680.477 340.67 681.645 331.964 670.827 333.062C660.01 334.159 658.495 339.26 658.144 343.556C657.793 347.852 662.201 368.433 666.622 368.092Z" fill="#FFB27D"/>
<path d="M658.797 336.748C658.797 336.748 669.504 347.869 676.826 348.82C684.148 349.771 686.939 346.999 686.939 346.999C686.939 346.999 682.645 342.702 680.087 335.804C679.333 333.771 677.723 332.366 675.861 332.159C670.632 331.579 660.715 331.251 658.797 336.748Z" fill="#233862"/>
<path d="M665.537 335.818C665.537 335.818 661.909 339.927 660.756 342.989C659.643 345.943 659.272 353.028 660.128 355.85C660.128 355.85 654.59 342.83 657.806 336.554C661.217 329.899 665.537 335.818 665.537 335.818Z" fill="#233862"/>
<path d="M655.577 409.825C655.845 450.304 655.526 441.843 659.229 445.715C660.122 446.647 662.643 447.219 665.963 447.508C676.403 448.42 694.777 446.529 695.488 444.241C697.945 436.325 696.258 433.845 698.341 421.712C698.558 420.421 698.825 419.025 699.139 417.504C700.864 409.173 702.512 406.348 696.646 392.891C691.326 380.702 685.783 370.798 685.277 371.15C670.992 381.065 669.894 372.621 669.894 372.621C669.894 372.621 655.444 390.08 655.577 409.825Z" fill="#F9DDBF"/>
<path d="M618.497 513.884L629.225 548.946C629.225 548.946 632.191 549.311 635.039 548.364C637.66 547.487 640.677 545.162 640.677 545.162C640.677 545.162 637.863 507.588 632.327 485.986L618.497 513.884Z" fill="#2B478B"/>
<path d="M669.894 372.619C669.894 372.619 655.238 375.446 653.475 382.92C651.712 390.394 641.335 434.334 641.335 434.334C641.335 434.334 648.767 435.985 652.229 431.929C655.691 427.873 664.416 394.132 664.416 394.132L669.894 372.619Z" fill="#F9DDBF"/>
<path d="M665.963 447.507C676.403 448.419 694.776 446.528 695.488 444.24C697.944 436.324 696.258 433.845 698.34 421.711L693.403 404.812C693.403 404.812 694.125 423.59 689.436 428.488C684.753 433.386 670.305 437.859 668.016 441.965C666.912 443.936 666.182 445.915 665.963 447.507Z" fill="#F2CCAA"/>
<path d="M677.977 439.714C677.977 439.714 667.689 436.902 666.019 437.974C664.35 439.047 660.263 442.97 659.746 444.343C659.229 445.716 663.454 443.328 664.826 442.904C665.715 442.628 668.044 443.612 669.196 444.079C674.049 446.046 677.035 445.08 677.035 445.08L677.977 439.714Z" fill="#FFB27D"/>
<path d="M685.286 371.141C685.286 371.141 699.116 372.269 703.859 380.248C710.535 391.478 723.628 439.212 715.924 445.5C707.249 452.58 676.623 447.041 676.623 447.041C676.623 447.041 675.637 441.367 677.072 438.638C678.508 435.908 701.601 431.675 702.673 430.418C703.745 429.163 689.512 405.639 689.534 401.844C689.558 398.049 685.286 371.141 685.286 371.141Z" fill="#F9DDBF"/>
<path d="M665.5 441.377C665.5 441.377 663.321 444.668 662.611 445.057C661.901 445.447 661.445 445.344 661.445 445.344L662.918 442.245L665.5 441.377Z" fill="#FFB27D"/>
<path d="M666.019 437.973L659.721 441.542C659.721 441.542 659.985 442.063 660.758 442.028C661.531 441.993 663.486 441.162 663.486 441.162L666.019 437.973Z" fill="#FFB27D"/>
<path d="M663.955 450.4L614.298 449.983L599.623 405.721L649.202 406.136L663.955 450.4Z" fill="#F99746"/>
<path d="M613.726 448.258L679.298 448.808L679.288 450.528L614.298 449.983L613.726 448.258Z" fill="#ED7D2B"/>
<path d="M626.964 428.02C626.599 426.465 627.361 425.214 628.667 425.225C629.973 425.235 631.327 426.505 631.693 428.059C632.058 429.614 631.295 430.865 629.99 430.854C628.684 430.844 627.329 429.574 626.964 428.02Z" fill="white"/>
<path d="M362.177 589.678L362.171 625.316L513.045 625.352L513.051 589.713L362.177 589.678Z" fill="#C65447"/>
<path d="M362.17 625.318L339.995 614.046L327.098 607.491L340.3 600.787L362.178 589.678C362.178 589.678 365.097 598.355 365.141 606.515C365.209 619.323 362.17 625.318 362.17 625.318Z" fill="#FCECDB"/>
<path d="M530.589 601.539L530.587 612.806C530.586 619.737 525.857 625.354 520.024 625.353L513.045 625.351L513.051 589.713L520.641 589.715C526.136 589.716 530.59 595.01 530.589 601.539Z" fill="#FCECDB"/>
<path d="M340.3 600.787C340.849 604.388 341.326 609.905 339.995 614.046L327.098 607.491L340.3 600.787Z" fill="#2B478B"/>
<path d="M394.609 404.119C394.609 404.119 397.312 418.052 405.189 418.052C411.942 418.052 421.205 399.916 421.205 399.916L394.609 404.119Z" fill="#F99746"/>
<path d="M485.051 609.917L479.99 614.052C479.99 614.052 455.648 583.224 449.772 553.674C448.724 548.398 448.3 543.194 448.749 538.257C448.749 538.257 448.393 536.919 447.772 534.552C447.744 534.449 447.717 534.342 447.689 534.236C447.417 533.198 447.09 531.977 446.728 530.594C445.548 526.129 443.927 520.018 442.079 513.061C437.825 497.052 428.095 460.946 423.937 445.927L453.82 433.08C453.82 433.08 457.214 442.277 462.092 467.274C462.843 470.537 463.596 474.145 464.299 478.076C465.095 482.528 465.839 487.397 466.458 492.657C467.506 501.567 468.206 511.591 468.25 522.587C468.266 527.06 468.174 531.698 467.951 536.483C467.788 539.993 468.226 544.669 469.049 549.988C472.815 574.308 485.051 609.917 485.051 609.917Z" fill="#2B478B"/>
<path d="M500.971 624.772H476.812C476.812 624.772 475.909 620.194 477.495 617.077C478.898 614.321 478.361 612.75 477.321 610.47C478.415 611.002 479.831 611.486 481.39 611.38C482.593 611.298 483.867 610.649 484.983 609.879C486.022 611.288 490.475 617.283 491.866 618.471C493.445 619.819 500.485 619.339 500.971 624.772Z" fill="#233862"/>
<path d="M466.459 492.657L447.689 534.236C447.417 533.198 447.09 531.977 446.728 530.594C445.548 526.129 443.927 520.018 442.079 513.061C437.825 497.052 428.095 460.946 423.937 445.927L453.82 433.08C453.82 433.08 457.214 442.277 462.092 467.274C462.843 470.537 463.596 474.145 464.299 478.076C465.096 482.528 465.839 487.397 466.459 492.657Z" fill="#233862"/>
<path d="M423.451 615.787C423.451 615.787 421.779 620.662 423.354 624.773H436.495C436.495 624.773 436.768 621.065 431.999 616.767C428.387 613.511 423.451 615.787 423.451 615.787Z" fill="#233862"/>
<path d="M437.753 298.384C437.761 297.607 438.097 289.225 448.814 288.48C448.814 288.48 443.554 289.379 442.699 292.16C442.699 292.16 446.221 288.653 449.168 289.664C452.115 290.675 453.956 296.714 454.014 298.716C454.072 300.718 452.578 307.22 450.733 307.823C450.034 308.05 449.223 308.018 448.485 307.89C448.997 308.792 449.502 309.789 449.987 310.905C454.479 321.221 450.604 333.374 446.958 332.35C444.62 331.694 443.198 336.509 443.198 336.509L420.709 313.53C420.709 313.53 428.588 292.905 437.753 298.384Z" fill="#2C3A64"/>
<path d="M423.616 368.209C426.109 370.264 429.236 371.96 433.161 373.036C447.873 377.075 453.511 362.3 455.629 352.157C453.622 350.793 451.735 350.492 450.644 350.338C449.581 350.189 448.463 350.09 447.536 350.035C445.884 348.532 443.423 342.378 442.878 332.824L442.186 333.045L430.591 336.816C430.591 336.816 431.122 341.195 431.383 345.335C431.584 348.574 431.616 351.67 431.099 352.427C430.194 352.66 429.651 352.813 429.651 352.813C429.651 352.813 429.651 352.817 429.645 352.826C429.49 353.129 426.126 359.702 423.616 368.209Z" fill="#FFB27D"/>
<path d="M430.59 336.819C430.59 336.819 431.123 341.195 431.381 345.338C437.951 344.557 440.999 337.125 442.186 333.049L430.59 336.819Z" fill="#ED985F"/>
<path d="M430.456 343.391C430.456 343.391 445.58 338.773 443.015 327.626C440.45 316.479 440.674 308.375 430.909 310.852C421.144 313.329 420.254 318.19 420.349 322.159C420.443 326.127 426.455 344.306 430.456 343.391Z" fill="#FFB27D"/>
<path d="M419.364 315.816C420.917 311.704 422.846 311.866 424.064 312.552C431.052 304.491 438.191 310.709 438.191 310.709C441.046 318.376 446.958 321.373 446.958 321.373C446.958 321.373 444.679 324.283 437.906 324.414C435.837 324.454 433.734 323.386 431.81 321.885C435.549 326.149 439.883 328.685 439.883 328.685C431.367 327.001 425.446 315.502 424.838 314.28C424.145 315.561 422.826 318.282 422.756 320.551C422.662 323.634 423.674 329.586 422.195 329.855C422.195 329.855 417.036 321.982 419.364 315.816Z" fill="#2C3A64"/>
<path d="M426.106 351.885C426.106 351.885 451.507 344.557 462.552 355.382L457.032 446.851L407.354 432.591C407.354 432.591 408.752 426.803 418.278 411.412C427.804 396.021 423.66 373.445 426.106 351.885Z" fill="#FFB27D"/>
<path d="M440.914 436.669C440.914 436.669 440.884 436.979 440.833 437.57C440.81 437.824 440.781 438.131 440.749 438.489C440.536 440.86 440.131 445.409 439.609 451.324C438.246 466.837 436.107 491.752 434.649 511.419C433.509 526.795 432.784 538.965 433.176 540.918C434.352 546.799 433.176 617.093 433.176 617.093C428.953 619.499 422.552 617.093 422.552 617.093C422.552 617.093 411.305 553.748 412.879 544.944C414.454 536.14 411.826 528.623 411.826 528.623C403.094 480.302 404.05 453.521 405.785 440.699C406.288 436.971 406.86 434.423 407.278 432.871C407.631 431.55 407.876 430.947 407.876 430.947C427.138 424.789 440.914 436.669 440.914 436.669Z" fill="#2B478B"/>
<path d="M465.976 381.471C464.751 392.475 459.845 405.94 458.092 413.188C458.092 413.188 461.021 438.353 458.225 445.262C457.908 446.05 457.514 446.601 457.033 446.85C446.674 452.211 406.334 447.005 404.631 431.542C404.012 425.924 419.996 406.162 420.928 403.764C421.314 402.773 421.726 399.557 419.852 392.894C417.196 402.626 402.534 399.827 402.534 399.827C404.255 396.328 408.542 372.124 413.329 361.197C416.928 352.984 426.538 351.794 426.538 351.794C426.538 351.794 430.537 359.332 440.21 358.262C449.882 357.193 451.651 350.158 451.651 350.158C451.651 350.158 460.229 351.513 462.872 354.047C463.331 354.487 467.585 367.053 465.976 381.471Z" fill="#F99746"/>
<path d="M458.092 413.19C458.092 413.19 461.021 438.354 458.225 445.263C450.678 440.762 444.73 428.586 446.104 415.022C447.119 404.995 448.627 402.708 453.142 396.971C456.459 392.755 464.128 392.517 463.527 394.523C461.738 400.496 459.018 409.361 458.092 413.19Z" fill="#ED7D2B"/>
<path d="M426.589 383.43L443.886 416.402H414.455L397.975 384.143L426.589 383.43Z" fill="#1C468A"/>
<path d="M442.986 414.747L443.285 413.596L426.917 382.393L426.589 383.431L442.986 414.747Z" fill="#EFDECE"/>
<path d="M426.917 382.393L399.192 383.331L397.975 384.144L426.589 383.431L426.917 382.393Z" fill="#FCECDB"/>
<path d="M397.975 384.144L382.421 374.141L400.552 407.971L414.455 416.403L397.975 384.144Z" fill="#163560"/>
<path d="M480.283 407.25C478.617 408.154 474.341 414.139 472.814 414.748C465.952 417.476 436.745 410.215 436.745 410.215L437.649 404.137C437.649 404.137 466.316 405.041 469.467 404.04C470.06 403.85 473.158 398.092 474.349 397.266L480.283 407.25Z" fill="#FFB27D"/>
<path d="M437.651 404.136C437.651 404.136 434.194 400.793 431.858 401.549C429.522 402.305 426.085 405.815 424.809 406.646C423.533 407.478 420.065 410.45 421.823 412.248C423.58 414.045 429.051 412.502 431.218 411.124C433.386 409.746 436.746 410.217 436.746 410.217L437.651 404.136Z" fill="#FFB27D"/>
<path d="M432.52 401.44C432.52 401.44 428.318 400.845 427.171 400.872C426.024 400.899 426.335 401.198 426.969 402.256C427.602 403.314 429.79 403.719 429.89 404.089C429.991 404.459 432.52 401.44 432.52 401.44Z" fill="#FFB27D"/>
<path d="M451.651 350.158C451.651 350.158 464.109 351.915 467.54 358.262C471.878 366.289 482.113 398.257 481.783 406.312C481.783 406.312 474.299 421.447 448.636 419.025C448.636 419.025 445.965 407.819 451.364 404.119C451.364 404.119 464.545 401.334 466.064 399.745L455.317 376.538L451.651 350.158Z" fill="#F99746"/>
<path d="M401.96 396.198C401.574 394.333 398.151 395.498 396.998 396.571C396.718 396.832 396.416 397.276 396.121 397.796C396.085 397.484 396.054 397.186 396.037 396.952C395.971 396.076 395.113 394.507 394.899 395.682C394.686 396.857 394.335 401.794 394.335 401.794C394.293 405.77 396.445 407.41 397.827 406.117C399.209 404.823 402.347 398.063 401.96 396.198Z" fill="#FFB27D"/>
<path d="M859.268 627.949H74.5388C73.9829 627.949 73.5278 627.409 73.5278 626.748V625.961C73.5278 625.301 73.9826 624.76 74.5388 624.76H859.268C859.824 624.76 860.279 625.301 860.279 625.961V626.748C860.279 627.409 859.825 627.949 859.268 627.949Z" fill="#C4C4C4"/>
</g>
<defs>
<clipPath id="clip0_299_873">
<rect width="917" height="681" fill="white" transform="translate(0 0.109375)"/>
</clipPath>
</defs>
</svg>
