<svg width="180" height="181" viewBox="0 0 180 181" fill="none" xmlns="http://www.w3.org/2000/svg">
<g filter="url(#filter0_d_299_1096)">
<circle cx="90" cy="74.1094" r="50" fill="#00CBB8"/>
</g>
<g clip-path="url(#clip0_299_1096)">
<path d="M78 50.1094C77.0532 50.1094 76.2856 50.8769 76.2856 51.8237V55.2522H79.7142V51.8237C79.7142 50.8769 78.9467 50.1094 78 50.1094Z" fill="#F5F5FC"/>
<path d="M102 50.1094C101.053 50.1094 100.286 50.8769 100.286 51.8237V55.2522H103.714V51.8237C103.714 50.8769 102.947 50.1094 102 50.1094Z" fill="#F5F5FC"/>
<path d="M108.857 55.252H103.714V62.1091C103.714 63.0559 102.947 63.8234 102 63.8234C101.053 63.8234 100.286 63.0559 100.286 62.1091V55.252H79.7142V62.1091C79.7142 63.0559 78.9467 63.8234 77.9999 63.8234C77.0531 63.8234 76.2856 63.0559 76.2856 62.1091V55.252H71.1429C68.3025 55.252 66 57.5545 66 60.3948V92.9662C66 95.8066 68.3025 98.1091 71.1429 98.1091H108.857C111.697 98.1091 114 95.8066 114 92.9662V60.3948C114 57.5545 111.697 55.252 108.857 55.252ZM110.571 92.9662C110.571 93.913 109.804 94.6806 108.857 94.6806H71.1429C70.196 94.6806 69.4285 93.913 69.4285 92.9662V70.6805H110.571V92.9662Z" fill="#F5F5FC"/>
<path d="M79.7141 74.1094H76.2856C75.3388 74.1094 74.5713 74.8769 74.5713 75.8237C74.5713 76.7705 75.3388 77.538 76.2856 77.538H79.7141C80.6609 77.538 81.4285 76.7705 81.4285 75.8237C81.4285 74.8769 80.6609 74.1094 79.7141 74.1094Z" fill="#F5F5FC"/>
<path d="M91.7144 74.1094H88.2859C87.339 74.1094 86.5715 74.8769 86.5715 75.8237C86.5715 76.7705 87.339 77.538 88.2859 77.538H91.7144C92.6612 77.538 93.4287 76.7705 93.4287 75.8237C93.4287 74.8769 92.6612 74.1094 91.7144 74.1094Z" fill="#F5F5FC"/>
<path d="M103.714 74.1094H100.286C99.339 74.1094 98.5715 74.8769 98.5715 75.8237C98.5715 76.7705 99.339 77.538 100.286 77.538H103.714C104.661 77.538 105.429 76.7705 105.429 75.8237C105.429 74.8769 104.661 74.1094 103.714 74.1094Z" fill="#F5F5FC"/>
<path d="M79.7141 80.9668H76.2856C75.3388 80.9668 74.5713 81.7343 74.5713 82.6811C74.5713 83.6279 75.3388 84.3954 76.2856 84.3954H79.7141C80.6609 84.3954 81.4285 83.6279 81.4285 82.6811C81.4285 81.7343 80.6609 80.9668 79.7141 80.9668Z" fill="#F5F5FC"/>
<path d="M91.7144 80.9668H88.2859C87.339 80.9668 86.5715 81.7343 86.5715 82.6811C86.5715 83.6279 87.339 84.3954 88.2859 84.3954H91.7144C92.6612 84.3954 93.4287 83.6279 93.4287 82.6811C93.4287 81.7343 92.6612 80.9668 91.7144 80.9668Z" fill="#F5F5FC"/>
<path d="M103.714 80.9668H100.286C99.339 80.9668 98.5715 81.7343 98.5715 82.6811C98.5715 83.6279 99.339 84.3954 100.286 84.3954H103.714C104.661 84.3954 105.429 83.6279 105.429 82.6811C105.429 81.7343 104.661 80.9668 103.714 80.9668Z" fill="#F5F5FC"/>
<path d="M79.7141 87.8242H76.2856C75.3388 87.8242 74.5713 88.5917 74.5713 89.5385C74.5713 90.4853 75.3388 91.2528 76.2856 91.2528H79.7141C80.6609 91.2528 81.4285 90.4852 81.4285 89.5384C81.4285 88.5916 80.6609 87.8242 79.7141 87.8242Z" fill="#F5F5FC"/>
<path d="M91.7144 87.8242H88.2859C87.339 87.8242 86.5715 88.5917 86.5715 89.5385C86.5715 90.4853 87.339 91.2528 88.2859 91.2528H91.7144C92.6612 91.2528 93.4287 90.4853 93.4287 89.5385C93.4287 88.5917 92.6612 87.8242 91.7144 87.8242Z" fill="#F5F5FC"/>
<path d="M103.714 87.8242H100.286C99.339 87.8242 98.5715 88.5917 98.5715 89.5385C98.5715 90.4853 99.339 91.2528 100.286 91.2528H103.714C104.661 91.2528 105.429 90.4853 105.429 89.5385C105.429 88.5917 104.661 87.8242 103.714 87.8242Z" fill="#F5F5FC"/>
</g>
<defs>
<filter id="filter0_d_299_1096" x="0" y="0.109375" width="180" height="180" filterUnits="userSpaceOnUse" color-interpolation-filters="sRGB">
<feFlood flood-opacity="0" result="BackgroundImageFix"/>
<feColorMatrix in="SourceAlpha" type="matrix" values="0 0 0 0 0 0 0 0 0 0 0 0 0 0 0 0 0 0 127 0" result="hardAlpha"/>
<feOffset dy="16"/>
<feGaussianBlur stdDeviation="20"/>
<feColorMatrix type="matrix" values="0 0 0 0 0.146118 0 0 0 0 0.172389 0 0 0 0 0.441667 0 0 0 0.1 0"/>
<feBlend mode="normal" in2="BackgroundImageFix" result="effect1_dropShadow_299_1096"/>
<feBlend mode="normal" in="SourceGraphic" in2="effect1_dropShadow_299_1096" result="shape"/>
</filter>
<clipPath id="clip0_299_1096">
<rect width="48" height="48" fill="white" transform="translate(66 50.1094)"/>
</clipPath>
</defs>
</svg>
