<svg width="180" height="181" viewBox="0 0 180 181" fill="none" xmlns="http://www.w3.org/2000/svg">
<g filter="url(#filter0_d_299_1138)">
<circle cx="90" cy="80.1094" r="50" fill="#5B72EE"/>
</g>
<g clip-path="url(#clip0_299_1138)">
<path d="M98.75 80.1094H82.25V85.8594H98.75V80.1094ZM106.398 66.543L97.9852 57.7383C97.5984 57.334 97.0742 57.1094 96.5242 57.1094H96V68.6094H107V68.0613C107 67.4953 106.785 66.9473 106.398 66.543ZM93.25 69.3281V57.1094H76.0625C74.9195 57.1094 74 58.0707 74 59.2656V100.953C74 102.148 74.9195 103.109 76.0625 103.109H104.938C106.08 103.109 107 102.148 107 100.953V71.4844H95.3125C94.1781 71.4844 93.25 70.5141 93.25 69.3281ZM79.5 63.5781C79.5 63.181 79.8077 62.8594 80.1875 62.8594H87.0625C87.4423 62.8594 87.75 63.181 87.75 63.5781V65.0156C87.75 65.4127 87.4423 65.7344 87.0625 65.7344H80.1875C79.8077 65.7344 79.5 65.4127 79.5 65.0156V63.5781ZM79.5 69.3281C79.5 68.931 79.8077 68.6094 80.1875 68.6094H87.0625C87.4423 68.6094 87.75 68.931 87.75 69.3281V70.7656C87.75 71.1627 87.4423 71.4844 87.0625 71.4844H80.1875C79.8077 71.4844 79.5 71.1627 79.5 70.7656V69.3281ZM101.5 96.6406C101.5 97.0377 101.192 97.3594 100.812 97.3594H93.9375C93.5577 97.3594 93.25 97.0377 93.25 96.6406V95.2031C93.25 94.806 93.5577 94.4844 93.9375 94.4844H100.812C101.192 94.4844 101.5 94.806 101.5 95.2031V96.6406ZM101.5 78.6719V87.2969C101.5 88.0911 100.885 88.7344 100.125 88.7344H80.875C80.1153 88.7344 79.5 88.0911 79.5 87.2969V78.6719C79.5 77.8777 80.1153 77.2344 80.875 77.2344H100.125C100.885 77.2344 101.5 77.8777 101.5 78.6719Z" fill="white"/>
</g>
<defs>
<filter id="filter0_d_299_1138" x="0" y="0.109375" width="180" height="180" filterUnits="userSpaceOnUse" color-interpolation-filters="sRGB">
<feFlood flood-opacity="0" result="BackgroundImageFix"/>
<feColorMatrix in="SourceAlpha" type="matrix" values="0 0 0 0 0 0 0 0 0 0 0 0 0 0 0 0 0 0 127 0" result="hardAlpha"/>
<feOffset dy="10"/>
<feGaussianBlur stdDeviation="20"/>
<feColorMatrix type="matrix" values="0 0 0 0 0.212 0 0 0 0 0.238778 0 0 0 0 0.533333 0 0 0 0.06 0"/>
<feBlend mode="normal" in2="BackgroundImageFix" result="effect1_dropShadow_299_1138"/>
<feBlend mode="normal" in="SourceGraphic" in2="effect1_dropShadow_299_1138" result="shape"/>
</filter>
<clipPath id="clip0_299_1138">
<rect width="33" height="46" fill="white" transform="translate(74 57.1094)"/>
</clipPath>
</defs>
</svg>
