<svg width="82" height="95" viewBox="0 0 82 95" fill="none" xmlns="http://www.w3.org/2000/svg">
<path d="M43.8902 5.94053L75.0647 48.8979L16.8713 51.626L43.8902 5.94053Z" fill="#085184"/>
<path d="M37.8311 92.357L6.88591 49.2342L65.093 46.8161L37.8311 92.357Z" fill="#085184"/>
<rect x="31.9783" y="41.0605" width="18.2834" height="3.08396" fill="white"/>
<rect x="31.9785" y="56.5312" width="18.2445" height="3.02891" fill="white"/>
<rect width="16.0458" height="4.46786" transform="matrix(0.0206868 0.999786 -0.999872 0.016001 43.1479 41.5508)" fill="white"/>
<path d="M46.6396 1.43708L28.5488 5.83386L46.609 15.811L64.6345 11.6336L46.6396 1.43708Z" fill="#085184"/>
<path d="M28.5488 5.83398L28.5729 6.34759L46.6692 16.8131L64.6576 12.1254L64.6345 11.6337L46.609 15.8111L28.5488 5.83398Z" fill="#2525AD"/>
<path d="M35.9094 17.6646L35.7366 19.9602C35.7366 19.9602 43.5804 27.0104 53.9805 22.8755L54.0587 21.0845C44.8052 23.445 38.7489 19.9962 35.9094 17.6646Z" fill="#2196F3"/>
<path d="M58.7309 28.6402C57.7078 27.7319 56.9488 26.3569 56.5493 24.8916C56.5197 24.783 56.4024 24.8283 56.3929 24.9231C56.369 24.8876 56.3241 24.8846 56.2893 24.9092C56.2686 24.8338 56.166 24.8036 56.1316 24.8976C55.5358 26.5283 56.1386 28.3105 56.6617 29.8714C56.7027 29.9941 56.8115 29.9218 56.7703 29.7988C56.361 28.5771 55.9199 27.2083 56.0725 25.8938C56.0306 27.5487 56.5567 29.2168 57.4367 30.4872C57.5003 30.5788 57.5867 30.4612 57.5229 30.3688C56.724 29.2155 56.2693 27.7256 56.2386 26.2262C56.2892 26.815 56.3911 27.3998 56.5707 27.9489C56.8458 28.7902 57.2769 29.5853 57.7058 30.3214C57.7689 30.4299 57.8548 30.3112 57.7917 30.203C57.3796 29.4954 57.0169 28.7314 56.7428 27.9281C56.6252 27.584 56.5417 27.2214 56.4818 26.8526C56.7642 28.0415 57.2882 29.1473 58.0083 30.031C58.0841 30.124 58.1744 30.0341 58.0977 29.9398C57.3086 28.9715 56.8023 27.708 56.5561 26.3913C56.8866 27.6197 57.4439 28.77 58.1548 29.7471C58.2266 29.846 58.2914 29.7321 58.2188 29.6322C57.525 28.6783 57.0428 27.5476 56.7186 26.3493C57.1374 27.5814 57.6615 28.7644 58.529 29.6139C58.614 29.6972 58.6977 29.5921 58.6129 29.5091C58.0171 28.9255 57.6045 28.119 57.2609 27.3067C57.6256 28.0139 58.0549 28.6706 58.545 29.2594C58.6225 29.3525 58.6769 29.196 58.6003 29.1039C58.1691 28.5861 57.8298 28.0059 57.4986 27.3913C57.8333 27.8887 58.2163 28.338 58.6441 28.7178C58.7316 28.7958 58.819 28.7185 58.7309 28.6402Z" fill="#F0C64B"/>
<path d="M56.2008 11.438C55.7932 10.8955 55.261 10.5512 54.7189 10.2614C53.6406 9.68527 52.4628 9.46807 51.3136 9.25685C49.6891 8.9584 48.0291 8.68928 46.6345 7.50671C46.5803 7.46073 46.5313 7.48742 46.5037 7.53805C46.5012 7.54115 46.4997 7.54502 46.4976 7.54836C46.4968 7.5503 46.4958 7.55143 46.495 7.55337C46.4651 7.60356 46.4596 7.67402 46.51 7.72777C47.5431 8.83295 48.879 9.34144 50.1864 9.68212C51.5077 10.0265 52.8498 10.2417 54.1261 10.8196C54.1657 10.8376 54.2053 10.8555 54.245 10.8734C54.2526 10.8769 54.2949 10.8982 54.2953 10.8979C54.3609 10.9331 54.4258 10.9693 54.4912 11.005C54.7312 11.1363 54.9653 11.2731 55.1876 11.4478C55.454 11.6573 55.7038 11.9175 55.8837 12.2394C56.0806 12.5915 56.162 12.9929 56.175 13.4125C56.1887 13.849 56.1432 14.2859 56.1058 14.7181C56.067 15.1658 56.0342 15.6144 55.9995 16.0624C55.9276 16.989 55.8637 17.9158 55.8262 18.8462C55.7439 20.8943 55.7929 22.9773 56.1861 24.9904C56.2154 25.1397 56.4191 25.0971 56.4026 24.9439C56.1965 23.0256 56.2337 21.0907 56.3638 19.1744C56.4287 18.2208 56.5168 17.2698 56.6074 16.3199C56.6923 15.4282 56.8176 14.5276 56.8347 13.6274C56.8502 12.8111 56.6609 12.0504 56.2008 11.438Z" fill="#F0C64B"/>
<path d="M56.1101 25.1384C56.1284 25.1262 56.1471 25.115 56.166 25.1041C56.1774 25.0979 56.1769 25.0982 56.1642 25.1047C56.1699 25.102 56.1752 25.0991 56.1808 25.0966C56.1893 25.0927 56.1977 25.0888 56.2061 25.0851C56.2469 25.0675 56.2888 25.0542 56.3316 25.0446C56.3418 25.0422 56.3523 25.0395 56.3626 25.0382C56.3337 25.0415 56.3674 25.038 56.3731 25.0372C56.394 25.0349 56.415 25.0333 56.436 25.0329C56.4569 25.0325 56.4778 25.0328 56.4989 25.0343C56.5093 25.0351 56.5199 25.036 56.5303 25.0371C56.5363 25.0379 56.5423 25.0385 56.5483 25.0396C56.5336 25.037 56.5327 25.0368 56.5454 25.0391C56.5763 25.0447 56.6032 25.0454 56.6309 25.0254C56.6537 25.0089 56.6751 24.9764 56.6806 24.9436C56.6917 24.8789 56.6621 24.7867 56.6003 24.7755C56.3893 24.7375 56.18 24.7776 55.9938 24.9021C55.943 24.9362 55.9242 25.0284 55.957 25.0892C55.9915 25.1535 56.0558 25.1749 56.1101 25.1384Z" fill="#D8A32B"/>
<path d="M56.0756 24.8725C56.094 24.8603 56.1126 24.8491 56.1315 24.8382C56.1429 24.832 56.1425 24.8323 56.1298 24.8388C56.1354 24.8361 56.1408 24.8334 56.1464 24.8307C56.1548 24.8268 56.1632 24.8229 56.1716 24.8192C56.2124 24.8016 56.2543 24.788 56.2971 24.7787C56.3074 24.7763 56.3178 24.7736 56.3281 24.7723C56.2992 24.7756 56.333 24.7721 56.3386 24.7713C56.3595 24.769 56.3806 24.7674 56.4015 24.767C56.4224 24.7666 56.4436 24.7669 56.4644 24.7687C56.475 24.7695 56.4854 24.7704 56.4958 24.7715C56.5018 24.7723 56.5078 24.7731 56.5138 24.7739C56.4991 24.7714 56.498 24.7712 56.5109 24.7735C56.5418 24.7791 56.5687 24.7798 56.5964 24.7598C56.6193 24.7432 56.6409 24.7105 56.6462 24.678C56.6573 24.6132 56.6276 24.5209 56.5658 24.5099C56.3546 24.4718 56.1455 24.512 55.9594 24.6365C55.9087 24.6706 55.8897 24.7631 55.9225 24.8236C55.957 24.8876 56.0211 24.909 56.0756 24.8725Z" fill="#D8A32B"/>
<path d="M54.3561 15.689L54.4051 14.7966L46.6698 16.8124L36.5383 10.953L36.3977 12.4564L46.533 18.0922L54.3561 15.689Z" fill="#2196F3"/>
<path d="M46.5327 18.0918L36.3972 12.456L35.9094 17.6653C38.7489 19.9969 44.8052 23.4457 54.0587 21.0854L54.3557 15.6886L46.5327 18.0918Z" fill="#2196F3"/>
</svg>
